<svg xmlns="http://www.w3.org/2000/svg" width="129" height="36"><linearGradient id="a" x1="50%" x2="50%" y1="98.001%" y2="1.873%"><stop offset="0" stop-color="#137ece"/><stop offset="1" stop-color="#288bd5"/></linearGradient><g fill="none" fill-rule="evenodd"><path fill="#363636" d="M67.1 26.57c3.33 0 5.3-1.44 6.49-3.02l-2.43-2.29a4.56 4.56 0 01-3.9 2.04c-3.05 0-5.12-2.35-5.12-5.65s2.07-5.62 5.13-5.62a4.5 4.5 0 013.9 1.96l2.42-2.2c-1.2-1.62-3.16-3.03-6.5-3.03-5.13 0-8.74 3.76-8.74 8.89 0 5.12 3.61 8.92 8.74 8.92zm12.95-.42V14.59c.74-1.23 2.81-2.28 4.4-2.28.45 0 .8.03 1.12.1V8.76c-2.18 0-4.22 1.27-5.52 2.88V9.18h-3.68v16.97zM89.93 7.1a2.28 2.28 0 100-4.57 2.28 2.28 0 100 4.57zm1.82 19.04V9.18h-3.68v16.97zm10.12.42c4.57 0 7.06-2.29 7.06-5.3 0-6.75-10.25-4.5-10.25-7.49 0-1.2 1.2-2.1 3.12-2.1 2.15 0 4 .9 5.03 2.03l1.54-2.6a9.7 9.7 0 00-6.57-2.35c-4.28 0-6.67 2.35-6.67 5.13 0 6.53 10.26 4.14 10.26 7.48 0 1.33-1.16 2.25-3.38 2.25a8.71 8.71 0 01-5.72-2.36L94.6 23.9c1.76 1.72 4.36 2.67 7.27 2.67zm19.4 0a6.8 6.8 0 01-5.45-2.78v8.82h-3.69V9.18h3.69v2.32a6.77 6.77 0 015.44-2.74c4.4 0 7.52 3.3 7.52 8.89 0 5.58-3.13 8.92-7.52 8.92zm-1.1-3.27c2.92 0 4.82-2.35 4.82-5.65s-1.9-5.62-4.81-5.62c-1.73 0-3.52.98-4.36 2.25v6.7a5.54 5.54 0 004.36 2.32z"/><path fill="url(#a)" d="M29.77 27.08l-5.39 8.78-6.98-7.36-14.81 1.7L.16 4.92 41.72.15l2.44 25.28z" transform="rotate(.25 22.156 18.003)"/></g></svg>